HIERARCHY
ROOT Hips
{
 OFFSET 0.000000 0.000000 0.000000
 CHANNELS 6 Xposition Yposition Zposition Yrotation Xrotation Zrotation
 JOINT Chest
 {
  OFFSET 0.000000 9.585900 0.002600
  CHANNELS 3 Yrotation Xrotation Zrotation
  JOINT Chest2
  {
   OFFSET 0.000000 9.601200 -0.005300
   CHANNELS 3 Yrotation Xrotation Zrotation
   JOINT Chest3
   {
    OFFSET 0.000000 9.561800 0.000000
    CHANNELS 3 Yrotation Xrotation Zrotation
    JOINT Chest4
    {
     OFFSET 0.000000 9.552100 0.000000
     CHANNELS 3 Yrotation Xrotation Zrotation
     JOINT Neck
     {
      OFFSET 0.000000 14.453000 0.000000
      CHANNELS 3 Yrotation Xrotation Zrotation
      JOINT Head
      {
       OFFSET 0.000000 8.936500 -0.011300
       CHANNELS 3 Yrotation Xrotation Zrotation
       End Site
       {
        OFFSET 0.000000 17.073600 -0.006000
       }
      }
     }
     JOINT RightCollar
     {
      OFFSET -2.921100 9.558500 0.000000
      CHANNELS 3 Yrotation Xrotation Zrotation
      JOINT RightShoulder
      {
       OFFSET -13.519700 0.000000 0.000000
       CHANNELS 3 Yrotation Xrotation Zrotation
       JOINT RightElbow
       {
        OFFSET 0.000000 -29.696600 0.000000
        CHANNELS 3 Yrotation Xrotation Zrotation
        JOINT RightWrist
        {
         OFFSET 0.000000 -24.004700 0.000000
         CHANNELS 3 Yrotation Xrotation Zrotation
         End Site
         {
          OFFSET 0.000000 -17.728500 0.000000
         }
        }
       }
      }
     }
     JOINT LeftCollar
     {
      OFFSET 2.921100 9.558500 0.000000
      CHANNELS 3 Yrotation Xrotation Zrotation
      JOINT LeftShoulder
      {
       OFFSET 13.519700 0.000000 0.000000
       CHANNELS 3 Yrotation Xrotation Zrotation
       JOINT LeftElbow
       {
        OFFSET 0.000000 -29.696600 0.000000
        CHANNELS 3 Yrotation Xrotation Zrotation
        JOINT LeftWrist
        {
         OFFSET 0.000000 -24.004700 0.000000
         CHANNELS 3 Yrotation Xrotation Zrotation
         End Site
         {
          OFFSET 0.000000 -17.728500 0.000000
         }
        }
       }
      }
     }
    }
   }
  }
 }
 JOINT RightHip
 {
  OFFSET -7.771700 -0.012900 -0.001300
  CHANNELS 3 Yrotation Xrotation Zrotation
  JOINT RightKnee
  {
   OFFSET 0.000000 -40.869800 0.001200
   CHANNELS 3 Yrotation Xrotation Zrotation
   JOINT RightAnkle
   {
    OFFSET 0.000000 -39.717900 0.002100
    CHANNELS 3 Yrotation Xrotation Zrotation
    JOINT RightToe
    {
     OFFSET 0.000000 -4.965400 11.033500
     CHANNELS 3 Yrotation Xrotation Zrotation
     End Site
     {
      OFFSET 0.000000 -1.423100 5.872300
     }
    }
   }
  }
 }
 JOINT LeftHip
 {
  OFFSET 7.771700 -0.012900 -0.001300
  CHANNELS 3 Yrotation Xrotation Zrotation
  JOINT LeftKnee
  {
   OFFSET 0.000000 -40.869800 0.001200
   CHANNELS 3 Yrotation Xrotation Zrotation
   JOINT LeftAnkle
   {
    OFFSET 0.000000 -39.717900 0.002100
    CHANNELS 3 Yrotation Xrotation Zrotation
    JOINT LeftToe
    {
     OFFSET 0.000000 -4.965400 11.033500
     CHANNELS 3 Yrotation Xrotation Zrotation
     End Site
     {
      OFFSET 0.000000 -1.423100 5.872300
     }
    }
   }
  }
 }
}
MOTION
Frames: 8
Frame Time: 0.008333
0.000000 85.388000 0.000000 0.000000 -5.767877 0.000000 0.000000 11.653817 0.000000 0.000000 -5.885947 0.000000 0.000000 -0.000000 0.000000 0.000000 -0.000000 0.000000 0.000000 12.528835 0.000000 0.000000 0.711642 0.000000 0.000000 -0.000000 0.000000 0.000000 0.000000 -90.000000 0.000000 -2.309062 0.000000 0.000000 2.309062 0.000000 0.000000 -0.000000 0.000000 0.000000 -0.000000 90.000000 0.000000 -2.309062 0.000000 0.000000 2.309062 0.000000 0.000000 8.520406 0.000000 0.000000 1.905762 0.000000 -0.000000 -4.658285 0.000000 0.000000 -0.000000 0.000000 0.000000 8.520406 0.000000 0.000000 1.905762 0.000000 -0.000000 -4.658285 0.000000 0.000000 -0.000000 0.000000
-230.426974 57.714948 23.368811 173.600726 -50.652061 -3.241838 4.374366 22.810968 3.820121 2.257688 13.068292 1.922473 2.912388 16.321883 2.502705 2.263692 13.154552 1.950259 1.500242 17.991207 2.274319 2.232475 -2.342456 3.602523 1.631259 3.022114 1.380247 2.558995 -19.145387 -12.686385 -107.026319 -54.021961 155.953800 31.490606 29.801801 11.104082 -8.693281 1.442925 -0.963056 -1.906196 -14.328292 13.947642 83.533629 -55.710868 -135.056806 -15.355016 11.993046 -9.745103 6.799767 -21.313180 0.047912 -41.951732 72.358758 -45.143682 3.989783 -13.493848 12.132177 -0.007340 -0.001474 0.007571 -9.374748 -18.738138 9.812405 55.290170 81.765740 57.293487 0.140377 -18.226287 -22.701308 0.003960 0.001478 -0.001626
-230.428832 57.715409 23.369729 173.606961 -50.673215 -3.239846 4.373016 22.846854 3.828159 2.256904 13.088516 1.926311 2.905728 16.416367 2.521602 2.253294 13.138493 1.934418 1.630525 17.923978 2.224113 2.320332 -2.495259 3.541266 1.579471 2.842371 1.326233 2.770139 -19.154763 -12.689037 -106.892519 -53.975286 155.845446 31.347407 29.615804 10.516380 -8.446616 1.272208 -0.888950 -2.083411 -14.506018 13.786437 83.502020 -55.727087 -134.992785 -15.269682 12.231301 -9.629113 6.805459 -21.288887 0.045061 -41.946957 72.358937 -45.138371 3.984743 -13.495020 12.133862 -0.005254 -0.001099 0.007450 -9.378863 -18.719163 9.799744 55.306997 81.762695 57.307185 0.138629 -18.222657 -22.701914 0.002858 0.000050 -0.000872
-230.430410 57.715900 23.370851 173.610518 -50.697308 -3.238664 4.369306 22.895060 3.832857 2.242595 13.167389 1.936301 2.897859 16.441579 2.515888 2.247293 13.150921 1.929395 1.733372 17.851383 2.194627 2.466201 -2.656473 3.467779 1.541117 2.665675 1.255392 2.987700 -19.209133 -12.686239 -106.801583 -53.943768 155.752678 31.219211 29.428991 9.967563 -8.149345 1.088988 -0.782206 -2.252191 -14.716079 13.575979 83.486971 -55.778404 -134.939729 -15.214476 12.457230 -9.642734 6.810498 -21.263367 0.045573 -41.949912 72.358898 -45.141379 3.985871 -13.496558 12.134683 -0.009357 -0.001459 0.008305 -9.380985 -18.696921 9.790916 55.333342 81.755007 57.330316 0.130006 -18.217056 -22.701692 0.003310 -0.001434 -0.000249
-230.432705 57.716595 23.371769 173.617747 -50.724374 -3.237332 4.358410 22.955030 3.832482 2.221456 13.227383 1.941743 2.887166 16.470939 2.511605 2.236805 13.187416 1.929203 1.829569 17.770046 2.172627 2.649384 -2.808674 3.395026 1.515992 2.497093 1.159493 3.191543 -19.307911 -12.665333 -106.761136 -53.932053 155.690450 31.104784 29.268045 9.492038 -7.815233 0.904906 -0.645560 -2.385707 -14.950505 13.311992 83.476920 -55.858415 -134.912286 -15.194744 12.663769 -9.770292 6.810722 -21.235368 0.042550 -41.952947 72.358541 -45.144599 3.980601 -13.492634 12.134004 -0.007239 -0.004401 0.009780 -9.381485 -18.671628 9.778948 55.282681 81.752482 57.276289 0.132125 -18.204883 -22.698657 0.002069 -0.003954 -0.000021
-230.435322 57.716799 23.373090 173.623471 -50.747322 -3.235057 4.323802 23.058913 3.835713 2.234344 13.189961 1.924360 2.861722 16.568942 2.527971 2.225176 13.227341 1.929731 1.931738 17.691265 2.155676 2.842171 -2.955999 3.329319 1.488420 2.327605 1.029612 3.359766 -19.445543 -12.614420 -106.739390 -53.936642 155.653460 30.997142 29.135246 9.089923 -7.475789 0.713738 -0.490409 -2.456328 -15.191282 13.001489 83.462828 -55.956727 -134.923583 -15.215096 12.846708 -9.990571 6.814926 -21.213829 0.040201 -41.962866 72.359492 -45.153435 3.977755 -13.488897 12.134636 -0.005380 -0.006208 0.007049 -9.387787 -18.651254 9.766796 55.297992 81.751787 57.282921 0.136676 -18.200432 -22.695831 0.000366 -0.004009 -0.000975
-230.438540 57.716913 23.374466 173.618045 -50.767447 -3.222987 4.304902 23.161047 3.839283 2.222063 13.246650 1.927544 2.857768 16.606730 2.524668 2.216090 13.274264 1.932892 2.032955 17.614753 2.143295 3.031973 -3.099084 3.272177 1.436124 2.137716 0.869532 3.489500 -19.610507 -12.535444 -106.708693 -53.940779 155.638177 30.893977 29.027328 8.750392 -7.162276 0.491606 -0.332476 -2.454505 -15.414392 12.666966 83.438053 -56.052159 -134.983358 -15.267704 13.010760 -10.272705 6.827311 -21.194412 0.036206 -41.990309 72.354800 -45.180795 3.980418 -13.489133 12.139810 -0.006582 -0.005857 0.005103 -9.393075 -18.629713 9.753262 55.322777 81.744093 57.293690 0.139633 -18.197761 -22.694646 -0.001338 -0.002834 -0.001946
-230.441260 57.717090 23.375999 173.616507 -50.783367 -3.219818 4.302703 23.271634 3.853744 2.211233 13.332387 1.939282 2.856810 16.652389 2.524705 2.211226 13.332420 1.939245 2.129190 17.538078 2.132699 3.212093 -3.242227 3.219770 1.350059 1.903859 0.685252 3.592864 -19.779440 -12.435163 -106.670383 -53.921962 155.648551 30.800216 28.945198 8.464476 -6.889989 0.211298 -0.183931 -2.396916 -15.595898 12.334891 83.406052 -56.121302 -135.088698 -15.351634 13.159938 -10.578971 6.838056 -21.174163 0.035446 -41.994738 72.348496 -45.178028 3.975464 -13.491078 12.138458 -0.003409 -0.001750 0.006823 -9.393843 -18.613873 9.748160 55.329382 81.741559 57.295577 0.142518 -18.194894 -22.694230 -0.000600 -0.002883 -0.002178
